<?xml version="1.0" encoding="UTF-8"?>
<svg width="250px" height="47px" viewBox="0 0 250 47" version="1.1" xmlns="http://www.w3.org/2000/svg" xmlns:xlink="http://www.w3.org/1999/xlink">
    <!-- Generator: Sketch 52.2 (67145) - http://www.bohemiancoding.com/sketch -->
    <title>Group 67</title>
    <desc>Created with Sketch.</desc>
    <defs>
        <polygon id="path-1" points="0.3318 0.649383333 22.3278 0.649383333 22.3278 31.3333333 0.3318 31.3333333"></polygon>
        <polygon id="path-3" points="0 0.680224218 32.7751967 0.680224218 32.7751967 41.8696007 0 41.8696007"></polygon>
    </defs>
    <g id="001_home_v1" stroke="none" stroke-width="1" fill="none" fill-rule="evenodd">
        <g id="001a_VD_home_desktophd_v3" transform="translate(-135.000000, -27.000000)">
            <g id="Group-67" transform="translate(135.000000, 27.000000)">
                <path d="M55.2386,11.5328208 C56.9806,10.4635708 58.8896,9.929925 60.9666,9.929925 C62.6166,9.929925 63.9606,10.1316333 64.9976,10.53505 C66.0356,10.940425 67.1006,11.5974458 68.1916,12.5100292 C68.6176,12.8488208 69.0706,13.0182167 69.5486,13.0182167 C70.0806,13.0182167 70.5396,12.8488208 70.9256,12.5100292 C71.3116,12.1702583 71.5046,11.7413833 71.5046,11.2204667 C71.5046,10.8806958 71.4526,10.587925 71.3446,10.3401958 C71.2386,10.0924667 71.0266,9.85159167 70.7066,9.61659167 C69.1896,8.41907083 67.6936,7.55838333 66.2166,7.03746667 C64.7386,6.51655 62.9886,6.2551125 60.9666,6.2551125 C58.1186,6.2551125 55.5166,6.95325833 53.1626,8.3466125 C50.8076,9.74094583 48.9516,11.6307375 47.5926,14.0150083 C46.2366,16.3992792 45.5576,19.024425 45.5576,21.8904458 C45.5576,24.7829042 46.2366,27.4276333 47.5926,29.8256125 C48.9516,32.2235917 50.8076,34.1124042 53.1626,35.4930292 C55.5166,36.8746333 58.1186,37.5649458 60.9666,37.5649458 C64.6926,37.5649458 67.9526,36.43205 70.7466,34.1643 C71.1716,33.8264875 71.3856,33.3427792 71.3856,32.7180708 L71.3856,23.3758417 C71.3856,22.7765917 71.1926,22.2879875 70.8056,21.9110083 C70.4196,21.53305 69.9346,21.3440708 69.3486,21.3440708 L61.8846,21.3440708 C61.2726,21.3440708 60.7736,21.5124875 60.3876,21.8503 C60.0016,22.1900708 59.8076,22.619925 59.8076,23.1408417 C59.8076,23.6637167 60.0016,24.0935708 60.3876,24.4304042 C60.7736,24.7711542 61.2726,24.9395708 61.8846,24.9395708 L67.3936,24.9395708 L67.3936,31.89655 C65.3426,33.2008 63.2026,33.8509667 60.9666,33.8509667 C58.8896,33.8509667 56.9806,33.3173208 55.2386,32.24905 C53.4946,31.1807792 52.1116,29.7335708 51.0866,27.9103625 C50.0616,26.086175 49.5506,24.0798625 49.5506,21.8904458 C49.5506,19.7274667 50.0616,17.7289875 51.0866,15.8901125 C52.1116,14.054175 53.4946,12.6010917 55.2386,11.5328208" id="Fill-1" fill="#FFFDFD"></path>
                <path d="M92.0823,30.2746583 C91.4843,31.3820958 90.6463,32.2496375 89.5683,32.8733667 C88.4913,33.4990542 87.2733,33.8123875 85.9153,33.8123875 C84.5593,33.8123875 83.3413,33.4990542 82.2633,32.8733667 C81.1863,32.2496375 80.3393,31.3820958 79.7283,30.2746583 C79.1163,29.1672208 78.8113,27.9089917 78.8113,26.5029083 C78.8113,25.0958458 79.1163,23.8317417 79.7283,22.7105958 C80.3393,21.5904292 81.1863,20.7179917 82.2633,20.0932833 C83.3413,19.4675958 84.5593,19.1552417 85.9153,19.1552417 C87.2733,19.1552417 88.4913,19.4675958 89.5683,20.0932833 C90.6463,20.7179917 91.4843,21.5904292 92.0823,22.7105958 C92.6833,23.8317417 92.9813,25.0958458 92.9813,26.5029083 C92.9813,27.9089917 92.6833,29.1672208 92.0823,30.2746583 M91.5643,17.024575 C89.9003,16.0992625 88.0183,15.6361167 85.9153,15.6361167 C83.7863,15.6361167 81.8843,16.0992625 80.2073,17.024575 C78.5313,17.9489083 77.2273,19.233575 76.2963,20.8736792 C75.3633,22.5157417 74.8983,24.3928042 74.8983,26.5029083 C74.8983,28.5875542 75.3633,30.4509083 76.2963,32.0919917 C77.2273,33.7340542 78.5313,35.0187208 80.2073,35.9430542 C81.8843,36.8673875 83.7863,37.3295542 85.9153,37.3295542 C88.0443,37.3295542 89.9403,36.8673875 91.6033,35.9430542 C93.2673,35.0187208 94.5643,33.7340542 95.4963,32.0919917 C96.4273,30.4509083 96.8943,28.5875542 96.8943,26.5029083 C96.8943,24.3928042 96.4213,22.5157417 95.4773,20.8736792 C94.5313,19.233575 93.2283,17.9489083 91.5643,17.024575" id="Fill-3" fill="#FFFDFD"></path>
                <path d="M129.3665,26.9718313 C128.1555,25.9554563 126.1005,25.1603729 123.1995,24.5875604 C121.7875,24.3006646 120.7105,24.0088729 119.9665,23.7072896 C119.2205,23.4086438 118.7145,23.0825813 118.4495,22.7310604 C118.1825,22.3795396 118.0505,21.9438104 118.0505,21.4219146 C118.0505,20.6924354 118.4425,20.1254979 119.2275,19.7211021 C120.0115,19.3176854 121.0175,19.1159771 122.2425,19.1159771 C123.3055,19.1159771 124.2105,19.2393521 124.9555,19.4861021 C125.7005,19.7338313 126.4065,20.1578104 127.0725,20.7560813 C127.6305,21.2515396 128.2555,21.5002479 128.9485,21.5002479 C129.4005,21.5002479 129.7725,21.3964563 130.0655,21.1869146 C130.5175,20.8226646 130.7435,20.4192479 130.7435,19.9747063 C130.7435,19.5585604 130.5715,19.1414354 130.2255,18.7233313 C129.4275,17.7608104 128.3415,17.0058729 126.9715,16.4575396 C125.6015,15.9101854 124.0505,15.6360187 122.3215,15.6360187 C120.9105,15.6360187 119.5795,15.8582896 118.3285,16.3018521 C117.0775,16.7444354 116.0665,17.4083104 115.2965,18.2944563 C114.5235,19.1806021 114.1375,20.2625813 114.1375,21.5384354 C114.1375,24.6923313 116.6925,26.7505396 121.8025,27.7150188 C123.7705,28.0802479 125.1675,28.5296854 125.9925,29.0633313 C126.8175,29.5979563 127.2315,30.2686854 127.2315,31.0755188 C127.2315,31.9097687 126.8125,32.5756021 125.9735,33.0700813 C125.1345,33.5645604 123.9575,33.8122896 122.4415,33.8122896 C121.2965,33.8122896 120.2185,33.6115604 119.2075,33.2061854 C118.1965,32.8027688 117.4375,32.3268938 116.9325,31.7795396 C116.4525,31.3114979 115.9475,31.0755188 115.4145,31.0755188 C114.9895,31.0755188 114.5235,31.2586229 114.0185,31.6228729 C113.4865,32.0135604 113.2205,32.5227271 113.2205,33.1484146 C113.2205,33.6154771 113.3925,34.0208521 113.7385,34.3596438 C114.6425,35.2448104 115.8935,35.9625396 117.4915,36.5089146 C119.0875,37.0562688 120.7905,37.3294562 122.6015,37.3294562 C124.4095,37.3294562 125.9605,37.0503938 127.2505,36.4903104 C128.5405,35.9292479 129.5195,35.1606021 130.1845,34.1833938 C130.8505,33.2061854 131.1825,32.1183313 131.1825,30.9208104 C131.1825,29.3042063 130.5765,27.9872271 129.3665,26.9718313" id="Fill-5" fill="#FFFDFD"></path>
                <g id="Group-9" transform="translate(136.000000, 14.986635)">
                    <mask id="mask-2" fill="white">
                        <use xlink:href="#path-1"></use>
                    </mask>
                    <g id="Clip-8"></g>
                    <path d="M17.4778,15.2487583 C16.8518,16.357175 16.0008,17.2286333 14.9228,17.8680292 C13.8458,18.5064458 12.6408,18.8256542 11.3108,18.8256542 C9.9798,18.8256542 8.7758,18.5064458 7.6968,17.8680292 C6.6198,17.2286333 5.7748,16.357175 5.1628,15.2487583 C4.5498,14.1403417 4.2448,12.8987583 4.2448,11.516175 C4.2448,10.13555 4.5498,8.88515417 5.1628,7.76302917 C5.7748,6.64384167 6.6198,5.76357083 7.6968,5.12515417 C8.7758,4.48771667 9.9798,4.16850833 11.3108,4.16850833 C12.6408,4.16850833 13.8458,4.48771667 14.9228,5.12515417 C16.0008,5.76357083 16.8518,6.64384167 17.4778,7.76302917 C18.1028,8.88515417 18.4148,10.13555 18.4148,11.516175 C18.4148,12.8987583 18.1028,14.1403417 17.4778,15.2487583 M16.9188,2.07700833 C15.2288,1.1262375 13.3598,0.649383333 11.3108,0.649383333 C9.2608,0.649383333 7.4048,1.1262375 5.7408,2.07700833 C4.0788,3.02875833 2.7608,4.33105 1.7898,5.98388333 C0.8188,7.64063333 0.3318,9.483425 0.3318,11.516175 L0.3318,29.340925 C0.3318,29.9391958 0.5258,30.4209458 0.9108,30.786175 C1.2958,31.1494458 1.7818,31.3335292 2.3678,31.3335292 C2.9808,31.3335292 3.4728,31.1494458 3.8448,30.786175 C4.2188,30.4209458 4.4028,29.9391958 4.4028,29.340925 L4.4028,18.7855083 C5.3348,19.9076333 6.4658,20.7790917 7.7978,21.4057583 C9.1258,22.0314458 10.5648,22.3428208 12.1088,22.3428208 C14.0248,22.3428208 15.7608,21.8747792 17.3188,20.9367375 C18.8738,19.9986958 20.0978,18.7032583 20.9908,17.0474875 C21.8798,15.3917167 22.3278,13.548925 22.3278,11.516175 C22.3278,9.483425 21.8488,7.64063333 20.8908,5.98388333 C19.9328,4.33105 18.6088,3.02875833 16.9188,2.07700833" id="Fill-7" fill="#FFFDFD" mask="url(#mask-2)"></path>
                </g>
                <path d="M178.886,30.2353938 C178.274,31.3438104 177.429,32.2152688 176.351,32.8546646 C175.274,33.4930813 174.069,33.8122896 172.739,33.8122896 C171.407,33.8122896 170.203,33.4930813 169.124,32.8546646 C168.047,32.2152688 167.197,31.3438104 166.572,30.2353938 C165.946,29.1269771 165.632,27.8853938 165.632,26.5028104 C165.632,25.1221854 165.946,23.8717896 166.572,22.7496646 C167.197,21.6304771 168.047,20.7502063 169.124,20.1117896 C170.203,19.4743521 171.407,19.1551437 172.739,19.1551437 C174.069,19.1551437 175.274,19.4743521 176.351,20.1117896 C177.429,20.7502063 178.274,21.6304771 178.886,22.7496646 C179.497,23.8717896 179.804,25.1221854 179.804,26.5028104 C179.804,27.8853938 179.497,29.1269771 178.886,30.2353938 M178.306,17.0636438 C176.642,16.1128729 174.787,15.6360187 172.739,15.6360187 C170.689,15.6360187 168.82,16.1128729 167.129,17.0636438 C165.44,18.0153938 164.116,19.3176854 163.157,20.9705188 C162.199,22.6272687 161.72,24.4700604 161.72,26.5028104 C161.72,28.5355604 162.165,30.3783521 163.058,32.0341229 C163.949,33.6898938 165.173,34.9853313 166.73,35.9233729 C168.287,36.8614146 170.024,37.3294562 171.94,37.3294562 C173.483,37.3294562 174.92,37.0180813 176.251,36.3923937 C177.58,35.7657271 178.711,34.8942688 179.644,33.7721437 L179.644,35.2193521 C179.644,35.7931437 179.836,36.2680396 180.222,36.6459979 C180.608,37.0239562 181.095,37.2129354 181.679,37.2129354 C182.265,37.2129354 182.749,37.0239562 183.136,36.6459979 C183.523,36.2680396 183.715,35.7931437 183.715,35.2193521 L183.715,26.5028104 C183.715,24.4700604 183.231,22.6272687 182.258,20.9705188 C181.287,19.3176854 179.97,18.0153938 178.306,17.0636438" id="Fill-10" fill="#FFFDFD"></path>
                <path d="M197.5266,33.2637604 L196.1706,33.2637604 C195.3166,33.2637604 194.5996,32.9132187 194.0146,32.2101771 C193.4296,31.5061563 193.1356,30.6327396 193.1356,29.5899271 L193.1356,19.9363229 L196.5286,19.9363229 C197.0886,19.9363229 197.5406,19.7796563 197.8866,19.4673021 C198.2316,19.1539688 198.4056,18.7632812 198.4056,18.2932813 C198.4056,17.7733438 198.2316,17.3562188 197.8866,17.0438646 C197.5406,16.7315104 197.0886,16.5758229 196.5286,16.5758229 L193.1356,16.5758229 L193.1356,10.9456146 C193.1356,10.3737813 192.9506,9.90476042 192.5776,9.53953125 C192.2046,9.17430208 191.7246,8.99119792 191.1396,8.99119792 C190.5546,8.99119792 190.0756,9.17430208 189.7026,9.53953125 C189.3316,9.90476042 189.1426,10.3737813 189.1426,10.9456146 L189.1426,16.5758229 L187.3076,16.5758229 C186.7506,16.5758229 186.2976,16.7315104 185.9506,17.0438646 C185.6036,17.3562188 185.4306,17.7733438 185.4306,18.2932813 C185.4306,18.7632812 185.6036,19.1539688 185.9506,19.4673021 C186.2976,19.7796563 186.7506,19.9363229 187.3076,19.9363229 L189.1426,19.9363229 L189.1426,29.5899271 C189.1426,31.0244063 189.4506,32.3139688 190.0616,33.4605729 C190.6746,34.6081563 191.5186,35.5129063 192.5976,36.1777604 C193.6756,36.8416354 194.8646,37.1735729 196.1706,37.1735729 L196.8886,37.1735729 C197.5816,37.1735729 198.1456,36.9924271 198.5866,36.6271979 C199.0226,36.2629479 199.2436,35.7919687 199.2436,35.2201354 C199.2436,34.6463437 199.0776,34.1773229 198.7436,33.8130729 C198.4116,33.4478437 198.0066,33.2637604 197.5266,33.2637604" id="Fill-12" fill="#FFFDFD"></path>
                <path d="M206.6673,7.15526042 C205.9483,7.15526042 205.3313,7.40886458 204.8123,7.91607292 C204.2923,8.42523958 204.0323,9.03134375 204.0323,9.73536458 C204.0323,10.4384063 204.2923,11.0445104 204.8123,11.5517188 C205.3313,12.0608854 205.9483,12.3144896 206.6673,12.3144896 C207.3863,12.3144896 208.0063,12.0608854 208.5243,11.5517188 C209.0443,11.0445104 209.3033,10.4384063 209.3033,9.73536458 C209.3033,9.03134375 209.0443,8.42523958 208.5243,7.91607292 C208.0063,7.40886458 207.3863,7.15526042 206.6673,7.15526042" id="Fill-14" fill="#FFFDFD"></path>
                <path d="M206.6673,15.7918042 C206.0833,15.7918042 205.5973,15.9758875 205.2123,16.3411167 C204.8243,16.7053667 204.6333,17.1861375 204.6333,17.7863667 L204.6333,35.1802833 C204.6333,35.754075 204.8243,36.2289708 205.2123,36.6069292 C205.5973,36.9858667 206.0833,37.1728875 206.6673,37.1728875 C207.2793,37.1728875 207.7723,36.9858667 208.1463,36.6069292 C208.5183,36.2289708 208.7043,35.754075 208.7043,35.1802833 L208.7043,17.7863667 C208.7043,17.1861375 208.5183,16.7053667 208.1463,16.3411167 C207.7723,15.9758875 207.2793,15.7918042 206.6673,15.7918042" id="Fill-16" fill="#FFFDFD"></path>
                <path d="M231.3372,30.2353938 C230.7252,31.3438104 229.8802,32.2152688 228.8022,32.8546646 C227.7252,33.4930813 226.5202,33.8122896 225.1902,33.8122896 C223.8582,33.8122896 222.6552,33.4930813 221.5752,32.8546646 C220.4982,32.2152688 219.6482,31.3438104 219.0232,30.2353938 C218.3972,29.1269771 218.0832,27.8853938 218.0832,26.5028104 C218.0832,25.1221854 218.3972,23.8717896 219.0232,22.7496646 C219.6482,21.6304771 220.4982,20.7502063 221.5752,20.1117896 C222.6552,19.4743521 223.8582,19.1551437 225.1902,19.1551437 C226.5202,19.1551437 227.7252,19.4743521 228.8022,20.1117896 C229.8802,20.7502063 230.7252,21.6304771 231.3372,22.7496646 C231.9482,23.8717896 232.2552,25.1221854 232.2552,26.5028104 C232.2552,27.8853938 231.9482,29.1269771 231.3372,30.2353938 M230.7572,17.0636438 C229.0932,16.1128729 227.2382,15.6360187 225.1902,15.6360187 C223.1402,15.6360187 221.2712,16.1128729 219.5802,17.0636438 C217.8912,18.0153938 216.5672,19.3176854 215.6082,20.9705188 C214.6502,22.6272687 214.1712,24.4700604 214.1712,26.5028104 C214.1712,28.5355604 214.6172,30.3783521 215.5092,32.0341229 C216.4012,33.6898938 217.6242,34.9853313 219.1822,35.9233729 C220.7382,36.8614146 222.4752,37.3294562 224.3912,37.3294562 C225.9352,37.3294562 227.3712,37.0180813 228.7022,36.3923937 C230.0312,35.7657271 231.1622,34.8942688 232.0952,33.7721437 L232.0952,35.2193521 C232.0952,35.7931437 232.2872,36.2680396 232.6752,36.6459979 C233.0602,37.0239562 233.5462,37.2129354 234.1302,37.2129354 C234.7162,37.2129354 235.2012,37.0239562 235.5872,36.6459979 C235.9742,36.2680396 236.1662,35.7931437 236.1662,35.2193521 L236.1662,26.5028104 C236.1662,24.4700604 235.6822,22.6272687 234.7102,20.9705188 C233.7382,19.3176854 232.4212,18.0153938 230.7572,17.0636438" id="Fill-18" fill="#FFFDFD"></path>
                <path d="M248.722,33.8126813 C248.388,33.4474521 247.956,33.2643479 247.424,33.2643479 L246.426,33.2643479 C245.84,33.2643479 245.361,32.9519938 244.99,32.3263063 C244.615,31.7015979 244.43,30.9074938 244.43,29.9420354 L244.43,8.60109792 C244.43,8.02828542 244.243,7.55926458 243.87,7.19403542 C243.497,6.82880625 243.019,6.64668125 242.434,6.64668125 C241.848,6.64668125 241.368,6.82880625 240.997,7.19403542 C240.624,7.55926458 240.438,8.02828542 240.438,8.60109792 L240.438,29.9420354 C240.438,31.3236396 240.691,32.5681604 241.196,33.6755979 C241.702,34.7830354 242.415,35.6437229 243.333,36.2557021 C244.249,36.8676813 245.281,37.1741604 246.426,37.1741604 L246.506,37.1741604 C247.305,37.1741604 247.956,36.9920354 248.461,36.6268063 C248.967,36.2625563 249.221,35.7925563 249.221,35.2197438 C249.221,34.6469313 249.053,34.1769313 248.722,33.8126813" id="Fill-20" fill="#FFFDFD"></path>
                <g id="Group-24" transform="translate(0.000000, 0.299135)">
                    <mask id="mask-4" fill="white">
                        <use xlink:href="#path-3"></use>
                    </mask>
                    <g id="Clip-23"></g>
                    <path d="M16.388,41.8679917 C16.388,41.8679917 17.883,41.9032417 21.774,41.6437625 C25.664,41.3833042 28.175,38.0071375 28.175,38.0071375 C28.175,38.0071375 29.573,36.2583458 30.262,32.7950333 C30.951,29.3317208 30.015,21.4709708 30.015,21.4709708 C30.015,21.4709708 29.926,18.0076583 30.103,17.0549292 C30.28,16.1031792 30.456,11.5833458 30.244,10.5963458 C30.033,9.60934583 30.722,9.31461667 30.722,9.31461667 C30.722,9.31461667 30.951,9.10703333 31.907,8.60472083 C32.862,8.1033875 32.773,7.0635125 32.773,7.0635125 C32.773,7.0635125 32.773,5.60945 31.695,5.24617917 C30.616,4.88290833 29.413,5.262825 28.742,5.34997083 C28.07,5.4361375 27.868,4.9720125 27.868,4.9720125 C23.127,0.563804167 17.705,0.693054167 16.564,0.680325 L16.214,0.680325 C15.303,0.680325 9.611,0.600033333 4.907,4.9720125 C4.907,4.9720125 4.706,5.4361375 4.034,5.34997083 C3.363,5.262825 2.159,4.88290833 1.081,5.24617917 C0.002,5.60945 0.002,7.0635125 0.002,7.0635125 C0.002,7.0635125 -0.087,8.1033875 0.868,8.60472083 C1.824,9.10703333 2.054,9.31461667 2.054,9.31461667 C2.054,9.31461667 2.743,9.60934583 2.531,10.5963458 C2.319,11.5833458 2.495,16.1031792 2.672,17.0549292 C2.849,18.0076583 2.761,21.4709708 2.761,21.4709708 C2.761,21.4709708 1.824,29.3317208 2.513,32.7950333 C3.203,36.2583458 4.6,38.0071375 4.6,38.0071375 C4.6,38.0071375 7.112,41.3833042 11.001,41.6437625 C14.892,41.9032417 16.388,41.8679917 16.388,41.8679917" id="Fill-22" fill="#FFFFFE" mask="url(#mask-4)"></path>
                </g>
                <path d="M17.6936,20.7249438 C17.6936,20.7504021 17.6886,21.3457354 17.2836,21.3496521 L15.5796,21.2585896 C15.2806,21.2585896 15.1466,21.1107354 15.1466,20.7768396 C15.1466,20.1570271 15.3266,20.1570271 15.4226,20.1570271 L17.0796,20.1550688 C17.3126,20.1864021 17.6936,20.3019438 17.6936,20.7249438 M17.1136,19.5078396 L15.4226,19.5078396 C14.9946,19.5078396 14.4826,19.7271729 14.4826,20.7768396 C14.4826,21.4642146 14.9086,21.9077771 15.5616,21.9077771 L17.2596,21.9988396 L17.2716,21.9988396 C17.9106,21.9988396 18.3566,21.4749854 18.3566,20.7249438 C18.3566,20.0689021 17.8856,19.6028188 17.1136,19.5078396" id="Fill-25" fill="#143643"></path>
                <path d="M14.6145,12.6276271 C14.6145,14.6613563 12.3615,17.1190646 9.5645,17.1190646 C6.3465,17.1190646 6.0965,13.6919813 6.0965,12.6413354 C6.0965,10.6036896 8.0385,8.33202292 10.8235,8.33202292 C13.6215,8.33202292 14.6145,10.6467729 14.6145,12.6276271 M10.8235,7.68283542 C7.6475,7.68283542 5.4335,10.2962313 5.4335,12.6413354 C5.4335,13.8437521 5.7315,17.7682521 9.5645,17.7682521 C12.1525,17.7682521 15.2775,15.4750438 15.2775,12.6276271 C15.2775,10.1660021 13.9005,7.68283542 10.8235,7.68283542" id="Fill-27" fill="#143643"></path>
                <path d="M12.2171,12.89445 C12.2171,11.8878667 11.3841,11.0712417 10.3561,11.0712417 C9.3271,11.0712417 8.4941,11.8878667 8.4941,12.89445 C8.4941,13.9010333 9.3271,14.7166792 10.3561,14.7166792 C11.3841,14.7166792 12.2171,13.9010333 12.2171,12.89445" id="Fill-29" fill="#143643"></path>
                <path d="M11.4778,12.0892813 C11.4778,11.7583229 11.2048,11.4910104 10.8668,11.4910104 C10.5288,11.4910104 10.2548,11.7583229 10.2548,12.0892813 C10.2548,12.4202396 10.5288,12.6875521 10.8668,12.6875521 C11.2048,12.6875521 11.4778,12.4202396 11.4778,12.0892813" id="Fill-31" fill="#FFFFFE"></path>
                <path d="M26.8098,12.6400625 C26.8098,13.6907083 26.5598,17.1187708 23.3428,17.1187708 C20.5458,17.1187708 18.2928,14.6610625 18.2928,12.6273333 C18.2928,10.6464792 19.2868,8.33270833 22.0838,8.33270833 C24.8698,8.33270833 26.8098,10.6024167 26.8098,12.6400625 M22.0838,7.68352083 C19.0068,7.68352083 17.6298,10.1666875 17.6298,12.6273333 C17.6298,15.4757292 20.7548,17.7679583 23.3428,17.7679583 C27.1758,17.7679583 27.4738,13.8434583 27.4738,12.6400625 C27.4738,10.2949583 25.2598,7.68352083 22.0838,7.68352083" id="Fill-33" fill="#143643"></path>
                <path d="M20.6897,12.89445 C20.6897,11.8878667 21.5237,11.0712417 22.5517,11.0712417 C23.5807,11.0712417 24.4137,11.8878667 24.4137,12.89445 C24.4137,13.9010333 23.5807,14.7166792 22.5517,14.7166792 C21.5237,14.7166792 20.6897,13.9010333 20.6897,12.89445" id="Fill-35" fill="#143643"></path>
                <path d="M21.429,12.0892813 C21.429,11.7583229 21.703,11.4910104 22.04,11.4910104 C22.378,11.4910104 22.653,11.7583229 22.653,12.0892813 C22.653,12.4202396 22.378,12.6875521 22.04,12.6875521 C21.703,12.6875521 21.429,12.4202396 21.429,12.0892813" id="Fill-37" fill="#FFFFFE"></path>
                <path d="M1.7268,7.08828542 C1.7388,7.01582708 1.9178,6.57226458 2.6078,6.52526458 C3.2968,6.47826458 3.2678,6.81607708 3.2678,6.95609792 C3.2688,7.09807708 2.7508,7.66109792 2.7888,8.00674375 C2.8278,8.35336875 2.5498,8.27895208 2.4448,8.23195208 C2.3388,8.18495208 1.6018,7.82853542 1.7268,7.08828542" id="Fill-39" fill="#143643"></path>
                <path d="M31.2112,7.08828542 C31.1992,7.01582708 31.0202,6.57226458 30.3302,6.52526458 C29.6412,6.47826458 29.6692,6.81607708 29.6692,6.95609792 C29.6692,7.09807708 30.1872,7.66109792 30.1492,8.00674375 C30.1092,8.35336875 30.3882,8.27895208 30.4932,8.23195208 C30.5982,8.18495208 31.3352,7.82853542 31.2112,7.08828542" id="Fill-41" fill="#143643"></path>
                <path d="M16.388,17.0472917 C14.818,17.0472917 13.44,17.7297708 13.44,18.5072292 C13.44,19.2856667 14.818,19.9681458 16.388,19.9681458 C17.958,19.9681458 19.335,19.2856667 19.335,18.5072292 C19.335,17.7297708 17.958,17.0472917 16.388,17.0472917" id="Fill-43" fill="#FFFFFE"></path>
                <path d="M19.3352,18.507425 C19.3352,19.2858625 17.9582,19.9683417 16.3882,19.9683417 C14.8172,19.9683417 13.4392,19.2858625 13.4392,18.507425 C13.4392,17.7299667 14.8172,17.0474875 16.3882,17.0474875 C17.9582,17.0474875 19.3352,17.7299667 19.3352,18.507425 M16.3882,16.3973208 C14.3622,16.3973208 12.7762,17.3236125 12.7762,18.507425 C12.7762,19.6912375 14.3622,20.6175292 16.3882,20.6175292 C18.4122,20.6175292 19.9982,19.6912375 19.9982,18.507425 C19.9982,17.3236125 18.4122,16.3973208 16.3882,16.3973208" id="Fill-45" fill="#143643"></path>
                <path d="M14.3645,17.6057104 C14.3645,16.8566479 15.3575,16.6147938 16.4005,16.6147938 C17.4425,16.6147938 18.4365,17.0074396 18.4365,17.7565021 C18.4365,18.5055646 17.4425,19.0538979 16.4005,19.0538979 C15.3575,19.0538979 14.3645,18.3557521 14.3645,17.6057104" id="Fill-47" fill="#143643"></path>
                <path d="M9.6682,41.7923021 C9.6682,42.5452813 8.4202,42.8165104 6.8172,42.8165104 C5.2152,42.8165104 4.2402,42.6578854 4.2402,41.9049063 C4.2402,41.1538854 5.0472,40.4410521 6.6492,40.4410521 C8.2522,40.4410521 9.6682,41.0403021 9.6682,41.7923021" id="Fill-49" fill="#FFFFFE"></path>
                <path d="M22.8098,41.7923021 C22.8098,42.5452813 23.9788,42.8165104 25.4798,42.8165104 C26.9808,42.8165104 27.8938,42.6578854 27.8938,41.9049063 C27.8938,41.1538854 27.1378,40.4410521 25.6368,40.4410521 C24.1358,40.4410521 22.8098,41.0403021 22.8098,41.7923021" id="Fill-51" fill="#FFFFFE"></path>
                <path d="M19.9934,33.1108146 C19.9924,33.1108146 19.9924,33.1098354 19.9914,33.1098354 C19.7554,33.0256271 19.6904,32.8660229 19.6734,32.8013979 C19.6084,32.5967521 19.6154,32.4185437 19.6954,32.2765646 C19.7964,32.0963979 19.9924,32.0112104 20.0754,31.9896687 L20.0744,31.9886896 L20.2924,31.9318979 L20.2814,31.9309188 C20.2134,31.9338562 20.1434,31.9358146 20.0784,31.9426687 C19.9544,31.9544187 19.8114,31.9691062 19.6954,31.8897937 C19.7044,31.9044812 19.7094,31.9181896 19.7124,31.9348354 C19.7174,31.9730229 19.7044,32.0121896 19.6764,32.0386271 C19.6274,32.0856271 19.5864,32.1385021 19.5544,32.1952937 C19.4514,32.3764396 19.4374,32.5967521 19.5134,32.8317521 C19.5354,32.9443562 19.6474,33.1578146 19.9354,33.2606271 C20.0414,33.2968562 20.1894,33.2841271 20.4304,33.2008979 C20.4344,33.1431271 20.4384,33.0853562 20.4414,33.0275854 C20.1934,33.1157104 20.0704,33.1343146 19.9934,33.1108146" id="Fill-53" fill="#193542"></path>
                <path d="M19.6389,31.838975 C19.5769,31.7714125 19.5289,31.662725 19.5019,31.4943083 C19.4989,31.1711833 19.8189,31.0546625 19.9899,30.992975 L20.2859,30.8764542 L20.0249,30.8216208 C19.8039,30.7765792 19.6679,30.6972667 19.6199,30.5846625 C19.5569,30.4319125 19.6709,30.2546833 19.6769,30.24685 L19.6929,30.2184542 C19.7229,30.1440375 19.7939,30.064725 19.8999,29.994225 C19.9979,29.9296 20.1229,29.8757458 20.2709,29.8346208 C20.2589,29.782725 20.2449,29.7318083 20.2319,29.6808917 C20.0639,29.7269125 19.9219,29.7866417 19.8089,29.8600792 C19.6829,29.9423292 19.5929,30.0422042 19.5409,30.1557875 C19.4969,30.2272667 19.3829,30.4368083 19.4679,30.6414542 C19.4969,30.7158708 19.5499,30.7795167 19.6219,30.8323917 C19.6539,30.8549125 19.6719,30.8901625 19.6729,30.92835 C19.6739,30.9665375 19.6569,31.0027667 19.6249,31.0262667 C19.4259,31.180975 19.3289,31.35135 19.3379,31.5315167 C19.3409,31.5501208 19.3709,31.6960167 19.6389,31.838975" id="Fill-55" fill="#193542"></path>
                <path d="M23.2747,32.6842896 C22.1077,32.7361854 21.7357,32.6696021 21.6287,32.6402271 L21.5717,32.6059563 L21.5277,32.6196646 C21.2637,32.7028938 21.0047,32.8066854 20.7977,32.8899146 L20.6987,32.9290813 C20.6947,32.9888104 20.6917,33.0475604 20.6877,33.1063104 C20.7427,33.0847688 20.7997,33.0622479 20.8597,33.0377688 C21.0757,32.9506229 21.2877,32.8673938 21.5107,32.7929771 L21.5477,32.7812271 L21.5867,32.7910188 C21.7587,32.8399771 22.1917,32.8928521 23.2807,32.8438938 C23.3047,32.8438938 23.7997,32.8360604 24.1737,32.7704563 L24.3267,32.7440188 L24.3217,32.8948104 C24.1867,37.0112271 22.8067,41.1628938 22.5477,41.9070604 L22.7037,41.9618938 C22.9657,41.2069563 24.4087,36.8907896 24.4917,32.6284771 L24.4937,32.5031438 L24.3777,32.5521021 C24.1617,32.6451229 23.5617,32.6784146 23.2747,32.6842896" id="Fill-57" fill="#193542"></path>
                <path d="M24.4915,32.6288688 C24.4085,36.8911813 22.9665,41.2073479 22.7035,41.9613063 L22.5485,41.9074521 C22.8065,41.1632854 24.1865,37.0116188 24.3215,32.8942229 L24.3265,32.7434313 L24.1745,32.7708479 C23.8005,32.8364521 23.3045,32.8442854 23.2805,32.8442854 C22.1915,32.8932438 21.7595,32.8403688 21.5865,32.7914104 L21.5485,32.7806396 L21.5115,32.7933687 C21.2875,32.8668063 21.0755,32.9510146 20.8595,33.0381604 C20.8005,33.0616604 20.7425,33.0851604 20.6875,33.1057229 C20.6915,33.0479521 20.6945,32.9882229 20.6985,32.9294729 L20.7985,32.8903063 C21.0055,32.8070771 21.2635,32.7023062 21.5275,32.6190771 L21.5715,32.6063479 L21.6295,32.6406188 C21.7355,32.6699938 22.1075,32.7355979 23.2745,32.6846813 C23.5615,32.6788063 24.1615,32.6455146 24.3775,32.5524938 L24.4935,32.5035354 L24.4915,32.6288688 Z M20.4295,33.2007021 C20.1895,33.2839313 20.0415,33.2976396 19.9355,33.2614104 C19.6475,33.1576188 19.5355,32.9441604 19.5125,32.8315563 C19.4375,32.5965563 19.4515,32.3762438 19.5545,32.1960771 C19.5865,32.1383063 19.6275,32.0854313 19.6765,32.0384313 C19.7045,32.0119938 19.7175,31.9728271 19.7125,31.9346396 C19.7095,31.9179938 19.7045,31.9042854 19.6955,31.8895979 C19.8115,31.9689104 19.9545,31.9552021 20.0785,31.9424729 C20.1435,31.9356188 20.2135,31.9336604 20.2815,31.9307229 L20.2925,31.9317021 L20.0745,31.9884938 L20.0755,31.9904521 C19.9925,32.0110146 19.7965,32.0962021 19.6955,32.2773479 C19.6155,32.4183479 19.6085,32.5965563 19.6735,32.8012021 C19.6905,32.8658271 19.7555,33.0254313 19.9915,33.1096396 C19.9925,33.1096396 19.9925,33.1106188 19.9935,33.1106188 C20.0705,33.1350979 20.1935,33.1155146 20.4415,33.0273896 C20.4385,33.0851604 20.4345,33.1429313 20.4295,33.2007021 Z M19.3385,31.5312229 C19.3295,31.3510563 19.4265,31.1806813 19.6255,31.0259729 C19.6565,31.0034521 19.6745,30.9672229 19.6735,30.9290354 C19.6725,30.8908479 19.6535,30.8546188 19.6225,30.8320979 C19.5505,30.7792229 19.4975,30.7155771 19.4685,30.6421396 C19.3835,30.4374938 19.4975,30.2279521 19.5415,30.1564729 C19.5935,30.0419104 19.6825,29.9430146 19.8085,29.8607646 C19.9225,29.7873271 20.0635,29.7266188 20.2315,29.6805979 C20.2455,29.7315146 20.2595,29.7834104 20.2705,29.8343271 C20.1235,29.8754521 19.9985,29.9293063 19.8995,29.9949104 C19.7945,30.0644313 19.7225,30.1437438 19.6925,30.2181604 L19.6775,30.2465563 C19.6715,30.2543896 19.5565,30.4316188 19.6205,30.5843688 C19.6685,30.6969729 19.8045,30.7762854 20.0245,30.8213271 L20.2865,30.8761604 L19.9895,30.9926813 C19.8185,31.0553479 19.4995,31.1718688 19.5025,31.4949938 C19.5285,31.6634104 19.5765,31.7711188 19.6385,31.8386813 C19.3715,31.6957229 19.3415,31.5498271 19.3385,31.5312229 Z M18.7385,27.1807854 C18.2625,26.8596188 17.7275,26.6353896 17.1635,26.5188688 C17.0625,26.4973271 16.9625,26.4963479 16.8605,26.4826396 C16.6805,26.4571813 16.5015,26.4297646 16.3175,26.4278063 C16.2985,26.4278063 16.2795,26.4219313 16.2615,26.4219313 C16.0875,26.4219313 15.9155,26.4493479 15.7415,26.4708896 C15.6585,26.4806813 15.5755,26.4787229 15.4925,26.4934104 C15.2145,26.5433479 14.9385,26.6167854 14.6705,26.7215563 C14.4715,26.7979313 14.2815,26.8899729 14.0985,26.9927854 C14.0525,27.0192229 14.0105,27.0534938 13.9645,27.0818896 C13.8325,27.1631604 13.7025,27.2444313 13.5815,27.3384313 C13.5205,27.3854313 13.4695,27.4383063 13.4115,27.4882438 C13.3125,27.5744104 13.2125,27.6586188 13.1205,27.7535979 C13.0595,27.8162646 13.0075,27.8877438 12.9505,27.9553063 C12.8835,28.0336396 12.8115,28.1060979 12.7505,28.1903063 C12.7285,28.1824729 12.7035,28.1775771 12.6785,28.1717021 C12.6615,28.1668063 12.6435,28.1619104 12.6245,28.1589729 C12.5995,28.1540771 12.5735,28.1521188 12.5465,28.1491813 C12.5205,28.1462438 12.4975,28.1442854 12.4705,28.1433063 C12.4425,28.1423271 12.4135,28.1442854 12.3845,28.1462438 C12.3535,28.1472229 12.3235,28.1501604 12.2915,28.1550563 C12.2615,28.1599521 12.2305,28.1648479 12.1985,28.1726813 C12.1635,28.1805146 12.1275,28.1922646 12.0905,28.2040146 C12.0575,28.2147854 12.0265,28.2265354 11.9935,28.2412229 C11.9525,28.2578688 11.9115,28.2803896 11.8685,28.3038896 C11.8365,28.3224938 11.8035,28.3381604 11.7705,28.3606813 C11.7215,28.3910354 11.6725,28.4311813 11.6215,28.4723063 C11.5935,28.4948271 11.5645,28.5134313 11.5355,28.5398688 C11.4545,28.6113479 11.3725,28.6935979 11.2885,28.7915146 C10.5855,28.7503896 10.0865,28.4909104 9.8035,28.0218896 L9.8265,27.9504104 C10.9775,25.1059313 13.2625,23.6655771 16.6175,23.6655771 C16.6835,23.6655771 16.7515,23.6665563 16.8185,23.6675354 C20.3815,23.7233479 22.6635,25.3223271 23.6035,28.4174729 C23.2935,28.6025354 22.5625,28.9971396 22.0715,28.9364313 C22.0655,28.9354521 21.9255,28.8992229 21.7865,28.6407229 C21.7525,28.5966604 21.4425,28.2040146 21.0155,28.3117229 C20.9335,28.3313063 20.8595,28.3694938 20.7915,28.4204104 C20.7685,28.4370563 20.7515,28.4644729 20.7295,28.4850354 C20.6865,28.5271396 20.6435,28.5692438 20.6055,28.6260354 C20.5845,28.6583479 20.5655,28.7004521 20.5465,28.7386396 C20.5145,28.7983688 20.4835,28.8580979 20.4575,28.9315354 C20.4385,28.9795146 20.4245,29.0392438 20.4075,29.0950563 C20.3915,29.1479313 20.3745,29.1910146 20.3605,29.2497646 C20.3445,29.2017854 20.3265,29.1547854 20.3075,29.1087646 C20.2005,28.8424313 20.0655,28.5898063 19.9085,28.3548063 C19.8465,28.2617854 19.7675,28.1844313 19.6995,28.0972854 C19.5955,27.9641188 19.4975,27.8270354 19.3785,27.7075771 C19.2435,27.5724521 19.0905,27.4608271 18.9395,27.3452854 C18.8705,27.2924104 18.8105,27.2287646 18.7385,27.1807854 Z M17.8845,31.6134729 C17.8625,31.6506813 17.8455,31.6918063 17.8195,31.7280354 C17.7655,31.8053896 17.7005,31.8758896 17.6345,31.9454104 C17.6175,31.9630354 17.6045,31.9835979 17.5875,32.0002438 C17.5225,32.0619313 17.4505,32.1148063 17.3765,32.1657229 C17.3495,32.1853063 17.3275,32.2088063 17.2995,32.2274104 C17.1965,32.2920354 17.0855,32.3498063 16.9665,32.3958271 C16.5005,32.5759938 15.9925,32.5681604 15.5335,32.3733063 C15.0735,32.1794313 14.7205,31.8220354 14.5355,31.3667229 C14.4875,31.2502021 14.4545,31.1307438 14.4325,31.0112854 C14.4305,31.0034521 14.4315,30.9975771 14.4305,30.9897438 C14.3585,30.5618479 14.4515,30.1319938 14.6685,29.7687229 C14.6905,29.7315146 14.7075,29.6903896 14.7315,29.6551396 C14.7865,29.5768063 14.8515,29.5063063 14.9195,29.4358063 C14.9345,29.4191604 14.9485,29.3985979 14.9665,29.3819521 C15.0285,29.3202646 15.1025,29.2683688 15.1755,29.2164729 C15.2025,29.1968896 15.2245,29.1733896 15.2535,29.1557646 C15.3565,29.0901604 15.4675,29.0323896 15.5865,28.9863688 C15.8115,28.8982438 16.0455,28.8571188 16.2735,28.8571188 C17.0195,28.8571188 17.7255,29.2967646 18.0165,30.0154729 C18.0635,30.1329729 18.0985,30.2514521 18.1205,30.3718896 C18.1215,30.3777646 18.1205,30.3855979 18.1215,30.3924521 C18.1935,30.8213271 18.1005,31.2502021 17.8845,31.6134729 Z M13.4195,31.1258479 C13.3875,31.1424938 13.3665,31.1738271 13.3585,31.2080979 C13.3515,31.2423688 13.3605,31.2785979 13.3835,31.3060146 C13.5185,31.4793271 13.5335,31.7084521 13.5035,31.8582646 C13.4705,32.1001188 13.2215,32.2724521 13.0195,32.3742854 C12.9595,32.4046396 12.8855,32.4252021 12.7985,32.4340146 C12.7595,32.4369521 12.7245,32.4575146 12.7045,32.4898271 C12.6835,32.5221396 12.6785,32.5622854 12.6925,32.5975354 C12.7035,32.6259313 12.7125,32.6533479 12.7205,32.6807646 C12.6745,32.5975354 12.6315,32.5162646 12.5925,32.4349938 C12.5635,32.3782021 12.5365,32.3223896 12.5115,32.2636396 C12.5705,32.2734313 12.8025,32.3047646 12.9455,32.2332854 C13.1885,32.1089313 13.3225,31.9708688 13.3435,31.8288896 C13.3815,31.6095563 13.3135,31.3422438 13.0105,31.2453063 L12.6575,31.1336813 L13.0265,31.0905979 C13.3095,31.0524104 13.6305,30.8771396 13.6035,30.5148479 C13.6015,30.4345563 13.5605,30.0301604 12.8925,29.9645563 L12.7875,29.9547646 L12.8255,29.8548896 C12.8425,29.8078896 12.9285,29.5611396 12.9395,29.2899104 C12.9345,28.9775563 12.9315,28.7494104 12.7515,28.6368063 C12.7785,28.5907854 12.8065,28.5457438 12.8365,28.5016813 C13.0765,28.6377854 13.0975,28.8953063 13.1025,29.2928479 C13.0975,29.4181813 13.0775,29.5533063 13.0425,29.6962646 C13.0265,29.7608896 13.0675,29.8274729 13.1345,29.8431396 C13.6465,29.9704313 13.7725,30.3190146 13.7655,30.5177854 C13.7915,30.8467854 13.5915,31.0289104 13.4195,31.1258479 Z M12.6995,33.2212646 C12.6375,33.3240771 12.5005,33.4494104 12.1895,33.4650771 C12.1285,33.4709521 12.0645,33.4729104 11.9995,33.4729104 C10.9875,33.4729104 9.4845,32.9167438 8.8565,32.6660771 L8.6895,32.5985146 L8.6845,32.7757438 C8.5845,36.8050146 9.6625,40.9233896 9.9215,41.7478479 L9.7605,41.7938688 C9.5205,41.0497021 8.3665,36.6463896 8.5315,32.4761188 L8.5365,32.3576396 L8.6475,32.4056188 C8.8865,32.5074521 10.9995,33.3867438 12.1955,33.3064521 C12.3695,33.2995979 12.4995,33.2398688 12.5605,33.1390146 C12.5845,33.0998479 12.6015,33.0489313 12.6055,32.9764729 C12.6425,33.0410979 12.6825,33.1047438 12.7245,33.1713271 C12.7175,33.1899313 12.7095,33.2065771 12.6995,33.2212646 Z M12.5115,28.5535771 C12.2875,28.5290979 11.9395,28.6152646 11.5125,29.1635979 L11.4905,29.1910146 L11.4545,29.1949313 C11.3985,29.2027646 9.9835,29.3153688 9.3715,28.0914104 L9.3565,28.0610563 L9.4375,27.8143063 C10.6605,24.7916188 13.0725,23.2611813 16.6125,23.2611813 C16.6825,23.2611813 16.7545,23.2621604 16.8255,23.2631396 C20.6815,23.3238479 23.1185,25.0990771 24.0695,28.5388896 L24.0845,28.5927438 L24.0355,28.6250563 C24.0245,28.6328896 22.8435,29.4407021 21.9995,29.3339729 C21.9655,29.3290771 21.6555,29.2722854 21.4475,28.8708271 L21.4295,28.8453688 C21.4235,28.8375354 21.2695,28.6691188 21.1215,28.7024104 C21.0135,28.7268896 20.8145,28.8874729 20.6965,29.6992021 L20.6875,29.7618688 L20.6345,29.7667646 C20.6225,29.7667646 20.5775,29.7716604 20.5145,29.7824313 C20.5025,29.7295563 20.4895,29.6766813 20.4755,29.6267438 L20.5445,29.6149938 L20.5585,29.5288271 C20.6625,28.9305563 20.8325,28.6103688 21.0785,28.5486813 C21.3495,28.4781813 21.5615,28.7552854 21.5755,28.7709521 C21.7435,29.0891813 21.9535,29.1606604 22.0265,29.1773063 C22.6415,29.2575979 23.4845,28.7817229 23.8175,28.5751188 L23.8955,28.5271396 L23.8705,28.4390146 C22.9135,25.1695771 20.5425,23.4814938 16.8225,23.4227438 C13.2475,23.3522438 10.8105,24.8562438 9.5915,27.8691396 L9.5335,28.0493063 L9.5585,28.0943479 C9.8885,28.6877229 10.4885,29.0049729 11.3405,29.0392438 L11.4025,29.0421813 L11.4425,28.9932229 C11.9415,28.3880979 12.3595,28.3528479 12.6035,28.4037646 C12.5715,28.4517438 12.5415,28.5026604 12.5115,28.5535771 Z M24.2775,32.3282646 C24.1355,32.3889729 23.6535,32.4330354 23.2665,32.4398896 C22.1885,32.4859104 21.8225,32.4320563 21.7225,32.4105146 L21.6285,32.3321813 L21.4525,32.3860354 C21.1785,32.4722021 20.9145,32.5779521 20.7035,32.6631396 L20.5055,32.7414729 C20.2085,32.8550563 20.1045,32.8775771 20.0705,32.8775771 L20.0695,32.8775771 C19.9515,32.8325354 19.9225,32.7669312 19.9135,32.7336396 C19.8685,32.5906813 19.8685,32.4770979 19.9145,32.3948479 C19.9795,32.2793063 20.1285,32.2283896 20.1395,32.2244729 L20.6415,32.0952229 C20.6955,32.0805354 20.7335,32.0345146 20.7345,31.9796813 L20.7345,31.8514104 C20.7345,31.7907021 20.6885,31.7388063 20.6265,31.7299938 L20.3035,31.6869104 C20.2145,31.6829938 20.1295,31.6918063 20.0535,31.6986604 C19.8345,31.7221604 19.7905,31.7250979 19.7515,31.4754104 C19.7505,31.3510563 19.9115,31.2825146 20.0765,31.2218063 L20.6125,31.0112854 C20.6605,30.9917021 20.6885,30.9378479 20.6875,30.8879104 L20.6905,30.8879104 L20.6825,30.7948896 C20.6785,30.7420146 20.6375,30.6979521 20.5845,30.6881604 L20.0755,30.5824104 C19.9145,30.5491188 19.8575,30.5030979 19.8515,30.4913479 C19.8455,30.4717646 19.8665,30.4100771 19.8905,30.3728688 L19.9185,30.3239104 C19.9345,30.2827854 19.9755,30.2397021 20.0395,30.1975979 C20.1365,30.1339521 20.2765,30.0800979 20.4465,30.0438688 C20.5525,30.0213479 20.6335,30.0125354 20.6445,30.0105771 L20.9065,29.9880563 L20.9445,29.7334729 C21.0255,29.1763271 21.1385,28.9990979 21.1745,28.9530771 C21.1935,28.9648271 21.2175,28.9834313 21.2335,28.9981188 C21.4925,29.4828063 21.8855,29.5650563 21.9655,29.5768063 C22.0265,29.5846396 22.0905,29.5885563 22.1545,29.5885563 C23.0785,29.5885563 24.1705,28.8316604 24.1795,28.8248063 L24.3715,28.6935979 L24.3105,28.4752438 C23.3275,24.9169521 20.8105,23.0810146 16.8295,23.0183479 C16.7565,23.0173688 16.6835,23.0163896 16.6105,23.0163896 C12.9605,23.0163896 10.4695,24.5997021 9.2025,27.7320563 L9.0895,28.0796604 L9.1465,28.1981396 C9.8335,29.5709313 11.4085,29.4426604 11.4765,29.4387438 L11.6235,29.4260146 L11.7125,29.3114521 C12.1385,28.7640979 12.4345,28.7778063 12.5415,28.8081604 C12.5715,28.8159938 12.5895,28.8267646 12.6035,28.8355771 C12.6685,28.8718063 12.6845,28.9618896 12.6895,29.2859938 C12.6795,29.5200146 12.5985,29.7481604 12.5905,29.7726396 L12.4975,30.0184104 C12.4835,30.0536604 12.4875,30.0928271 12.5085,30.1251396 C12.5295,30.1574521 12.5635,30.1780146 12.6015,30.1819313 L12.8675,30.2073896 C13.3145,30.2514521 13.3525,30.4570771 13.3535,30.5256187 C13.3725,30.7831396 13.0565,30.8389521 12.9955,30.8477646 L12.0625,30.9574313 C12.0045,30.9642854 11.9585,31.0103063 11.9535,31.0670979 C11.9475,31.1248688 11.9825,31.1777438 12.0395,31.1953688 L12.9325,31.4783479 C13.1035,31.5331813 13.1165,31.6761396 13.0955,31.7907021 C13.0915,31.8269313 13.0295,31.9140771 12.8305,32.0149313 C12.7835,32.0403896 12.6365,32.0394104 12.5455,32.0208063 L12.4085,31.9943688 L12.3885,31.9904521 L12.3395,31.9806604 L11.8495,31.8886188 L12.1895,32.4957021 C12.4095,32.8883479 12.3465,33.0117229 12.3455,33.0136813 C12.3355,33.0303271 12.2835,33.0577438 12.1775,33.0616604 C12.1255,33.0665563 12.0705,33.0685146 12.0145,33.0685146 C10.8355,33.0685146 8.8365,32.2195771 8.7475,32.1813896 L8.3005,31.9884938 L8.2815,32.4663271 C8.0965,37.1398896 9.4905,41.8722021 9.5755,42.0083063 L9.6255,42.0876188 L10.1145,41.9485771 L10.2785,41.9133271 L10.1915,41.7772229 C10.0795,41.5197021 8.8605,37.2143062 8.9305,32.9588479 C9.6965,33.2565146 11.2335,33.7979938 12.2205,33.7098688 C12.5845,33.6902854 12.7745,33.5365563 12.8795,33.3926187 C14.7385,36.0882646 18.7465,38.4118271 19.3505,38.7525771 C19.3875,38.8093688 19.4385,38.8328688 19.4855,38.8328688 C19.5045,38.8328688 19.5215,38.8299313 19.5375,38.8230771 C19.5955,38.8015354 19.6425,38.7369104 19.6245,38.6458479 C20.0175,37.3817438 20.4915,35.3509521 20.6655,33.3759729 C20.7575,33.3417021 20.8495,33.3054729 20.9555,33.2633688 C21.1545,33.1830771 21.3505,33.1047438 21.5545,33.0371813 C21.8495,33.1076813 22.4185,33.1243271 23.2875,33.0890771 C23.3055,33.0890771 23.7035,33.0822229 24.0665,33.0342438 C23.8885,37.4669313 22.2895,41.8957021 22.2725,41.9387854 L22.2285,42.0553063 L22.8545,42.2756187 L22.8965,42.1590979 C22.9145,42.1130771 24.6495,37.3406188 24.7415,32.6327854 L24.7515,32.1265563 L24.2775,32.3282646 Z" id="Fill-59" fill="#143643"></path>
                <path d="M8.5315,32.475825 C8.3665,36.6460958 9.5205,41.0494083 9.7605,41.7945542 L9.9215,41.7485333 C9.6625,40.9230958 8.5845,36.8047208 8.6845,32.7764292 L8.6895,32.5982208 L8.8565,32.6657833 C9.4845,32.91645 10.9875,33.4735958 11.9995,33.4735958 C12.0645,33.4735958 12.1285,33.4716375 12.1895,33.4657625 C12.5005,33.4491167 12.6365,33.3237833 12.6995,33.22195 C12.7095,33.2062833 12.7175,33.1896375 12.7245,33.1710333 C12.6825,33.1054292 12.6425,33.0408042 12.6055,32.9771583 C12.6015,33.0486375 12.5845,33.1005333 12.5605,33.1387208 C12.4995,33.239575 12.3695,33.2993042 12.1955,33.3071375 C10.9995,33.3874292 8.8855,32.5071583 8.6475,32.4063042 L8.5365,32.3573458" id="Fill-61" fill="#193542"></path>
                <path d="M11.4427,28.9933208 L11.4027,29.0422792 L11.3397,29.0393417 C10.4887,29.0050708 9.8887,28.6878208 9.5587,28.0944458 L9.5337,28.0494042 L9.5907,27.8692375 C10.8107,24.8553625 13.2477,23.3523417 16.8227,23.4228417 C20.5427,23.4815917 22.9137,25.169675 23.8707,28.4391125 L23.8957,28.5262583 L23.8177,28.5752167 C23.4847,28.7818208 22.6417,29.2576958 22.0267,29.176425 C21.9537,29.1607583 21.7437,29.0892792 21.5757,28.7700708 C21.5617,28.7553833 21.3497,28.4782792 21.0787,28.5487792 C20.8327,28.6094875 20.6627,28.9306542 20.5587,29.528925 L20.5447,29.6150917 L20.4757,29.6258625 C20.4897,29.6767792 20.5027,29.7296542 20.5147,29.7825292 C20.5777,29.7717583 20.6227,29.7668625 20.6337,29.7668625 L20.6877,29.7619667 L20.6967,29.6993 C20.8147,28.8875708 21.0137,28.7269875 21.1217,28.7025083 C21.2697,28.6692167 21.4227,28.8376333 21.4297,28.8454667 L21.4477,28.870925 C21.6557,29.2723833 21.9647,29.329175 21.9997,29.3340708 C22.8427,29.4408 24.0247,28.6329875 24.0357,28.6251542 L24.0847,28.5928417 L24.0697,28.5389875 C23.1187,25.0981958 20.6817,23.3239458 16.8257,23.2622583 C16.7547,23.2612792 16.6827,23.2612792 16.6127,23.2612792 C13.0727,23.2612792 10.6607,24.7917167 9.4377,27.8144042 L9.3567,28.0611542 L9.3717,28.0915083 C9.9837,29.3154667 11.3987,29.2028625 11.4547,29.1950292 L11.4907,29.1911125 L11.5127,29.1636958 C11.9397,28.6153625 12.2877,28.5291958 12.5107,28.553675 C12.5417,28.5027583 12.5717,28.4518417 12.6037,28.4028833 C12.3597,28.3529458 11.9417,28.3881958 11.4427,28.9933208" id="Fill-63" fill="#193542"></path>
                <path d="M13.1341,29.8434333 C13.0681,29.8267875 13.0271,29.7611833 13.0421,29.6965583 C13.0771,29.5536 13.0981,29.4174958 13.1031,29.2931417 C13.0981,28.8946208 13.0761,28.6380792 12.8361,28.501975 C12.8071,28.5460375 12.7791,28.5910792 12.7511,28.6371 C12.9321,28.7497042 12.9351,28.9768708 12.9401,29.2902042 C12.9281,29.5614333 12.8421,29.8081833 12.8251,29.8551833 L12.7871,29.9540792 L12.8931,29.96485 C13.5611,30.029475 13.6021,30.43485 13.6041,30.5151417 C13.6301,30.8774333 13.3101,31.051725 13.0271,31.0899125 L12.6571,31.1329958 L13.0101,31.2456 C13.3141,31.3415583 13.3811,31.60985 13.3431,31.8282042 C13.3221,31.9711625 13.1891,32.1082458 12.9461,32.2326 C12.8021,32.3050583 12.5711,32.2727458 12.5111,32.2639333 C12.5361,32.3217042 12.5641,32.3784958 12.5921,32.4343083 C12.6311,32.5155792 12.6741,32.5978292 12.7211,32.6800792 C12.7121,32.6536417 12.7031,32.626225 12.6931,32.5978292 C12.6791,32.5616 12.6841,32.5214542 12.7041,32.4901208 C12.7251,32.4578083 12.7591,32.4362667 12.7981,32.4343083 C12.8851,32.4254958 12.9591,32.4049333 13.0201,32.3745792 C13.2221,32.2717667 13.4701,32.1004125 13.5031,31.8585583 C13.5331,31.7077667 13.5191,31.4796208 13.3831,31.3063083 C13.3611,31.2788917 13.3521,31.2426625 13.3591,31.2083917 C13.3661,31.1731417 13.3881,31.1427875 13.4191,31.1261417 C13.5911,31.0292042 13.7911,30.8461 13.7661,30.5171 C13.7731,30.3183292 13.6471,29.970725 13.1341,29.8434333" id="Fill-65" fill="#193542"></path>
            </g>
        </g>
    </g>
</svg>