<?xml version="1.0" encoding="UTF-8"?>
<svg width="236px" height="70px" viewBox="0 0 236 70" version="1.1" xmlns="http://www.w3.org/2000/svg" xmlns:xlink="http://www.w3.org/1999/xlink">
    <!-- Generator: Sketch 52.2 (67145) - http://www.bohemiancoding.com/sketch -->
    <title>Group 7</title>
    <desc>Created with Sketch.</desc>
    <g id="001_home_v1" stroke="none" stroke-width="1" fill="none" fill-rule="evenodd">
        <g id="001a_VD_home_desktophd_v3" transform="translate(-852.000000, -3964.000000)" stroke="#0F3F53" stroke-width="3">
            <g id="block-partner" transform="translate(195.000000, 3434.000000)">
                <g id="block-partner__slogan" transform="translate(653.000000, 449.000000)">
                    <g id="Group-7">
                        <path d="M55,22 C99.4142602,29.8360107 148.47644,75.0951243 142.996086,122.996094 C140.208252,147.363124 101.747591,137.21103 91.50195,125.498047 C88.2768776,121.811092 82.6825832,110.804481 85.9960911,105.0625 C93.2206999,92.5429688 112.725438,90.2669696 124.000001,96.3613281 C170.052788,121.254729 193.018986,149.26572 193,206" id="Path-3-Copy-2" stroke-linecap="round" stroke-linejoin="round" stroke-dasharray="8,11,8,11" transform="translate(124.000000, 114.000000) rotate(-225.000000) translate(-124.000000, -114.000000) "></path>
                        <path d="M2.79937054,87 C17.691576,92 18.0403257,89.6690795 2,97" id="Path-4-Copy-2" transform="translate(8.000000, 92.000000) scale(-1, 1) rotate(-61.000000) translate(-8.000000, -92.000000) "></path>
                    </g>
                </g>
            </g>
        </g>
    </g>
</svg>